<?xml version="1.0" standalone="no"?>
<!DOCTYPE svg PUBLIC "-//W3C//DTD SVG 20010904//EN"
 "http://www.w3.org/TR/2001/REC-SVG-20010904/DTD/svg10.dtd">
<svg version="1.0" xmlns="http://www.w3.org/2000/svg"
 width="235.000000pt" height="100.000000pt" viewBox="0 0 235.000000 100.000000"
 preserveAspectRatio="xMidYMid meet">
<metadata>
Created by potrace 1.10, written by Peter Selinger 2001-2011
</metadata>
<g transform="translate(0.000000,100.000000) scale(0.100000,-0.100000)"
fill="#000000" stroke="none">
<path d="M1166 985 c-9 -23 -8 -25 9 -25 12 0 15 -10 13 -41 -1 -23 -8 -43
-15 -46 -16 -6 -17 -33 -2 -33 15 0 3 -191 -13 -201 -21 -13 4 -29 48 -29 31
0 44 4 44 14 0 8 -5 16 -11 18 -7 2 -9 32 -4 94 l7 91 46 14 c60 18 90 58 74
94 -13 28 -65 55 -107 55 -14 0 -25 -4 -25 -10 0 -5 5 -10 10 -10 6 0 3 -11
-5 -24 -15 -22 -15 -62 0 -86 4 -6 2 -17 -5 -25 -6 -7 -12 -31 -13 -53 -1 -34
-3 -38 -13 -24 -8 11 -9 21 -3 27 11 11 12 28 1 21 -10 -6 -7 52 6 111 5 23 5
40 1 37 -5 -3 -10 0 -10 5 -1 6 -2 16 -3 23 -2 18 -23 20 -30 3z m128 -45 c32
-12 33 -34 4 -54 -35 -25 -55 -20 -60 13 -2 17 -1 28 4 25 4 -3 8 2 8 10 0 19
9 20 44 6z"/>
<path d="M932 973 c-17 -7 -38 -50 -46 -95 -4 -20 -12 -38 -19 -41 -9 -3 -9
-9 0 -28 15 -31 34 -179 26 -209 -6 -22 -4 -23 27 -17 18 4 39 7 46 7 18 0 18
18 0 35 -14 15 -32 167 -21 185 3 5 19 10 35 10 31 0 30 3 49 -115 6 -33 9
-69 8 -80 -2 -17 3 -19 28 -17 39 5 41 8 27 35 -14 28 -41 178 -35 194 3 7 -5
24 -16 39 -12 15 -21 32 -21 39 0 17 -46 65 -62 64 -7 0 -19 -3 -26 -6z m49
-72 c19 -44 16 -51 -19 -51 -20 0 -23 4 -19 23 2 12 8 30 12 40 4 10 3 17 -4
17 -6 0 -11 -4 -11 -10 0 -5 -4 -10 -8 -10 -5 0 -9 7 -9 15 0 9 9 15 21 15 15
0 26 -12 37 -39z m-58 -27 c-3 -8 3 -22 13 -30 11 -9 13 -13 7 -9 -8 4 -13 -1
-13 -14 0 -24 -18 -37 -32 -23 -12 12 11 104 24 96 4 -3 5 -11 1 -20z m-1
-101 c-6 -2 -9 -10 -5 -16 11 -17 12 -108 2 -101 -6 3 -7 19 -4 35 4 18 2 36
-5 44 -14 17 -6 45 12 44 10 0 10 -2 0 -6z"/>
<path d="M1472 949 c3 -22 38 -37 38 -17 0 6 6 5 15 -2 11 -9 12 -16 5 -25 -5
-6 -6 -16 -2 -20 4 -5 -1 -5 -10 -2 -9 3 -19 1 -21 -6 -2 -7 -2 1 1 17 6 38
-14 26 -23 -14 -4 -18 -13 -30 -22 -30 -12 0 -14 -7 -9 -32 8 -39 -29 -178
-52 -196 -20 -15 -9 -27 40 -40 40 -11 58 -1 41 21 -6 8 -1 44 15 100 l24 87
43 0 c78 0 125 70 77 113 -20 18 -93 51 -135 61 -25 6 -28 4 -25 -15z m128
-75 c13 -14 11 -19 -10 -36 -33 -27 -66 -21 -61 12 6 44 20 61 40 51 10 -6 24
-17 31 -27z m-93 -31 c-4 -3 -3 -11 3 -18 6 -7 2 -19 -14 -36 -12 -13 -21 -30
-19 -36 2 -6 0 -14 -6 -17 -5 -3 -7 -16 -4 -29 3 -17 2 -18 -5 -7 -11 18 -4
80 9 80 6 0 5 9 -1 20 -12 22 4 49 29 50 8 0 11 -3 8 -7z"/>
<path d="M533 848 c-56 -22 -68 -43 -32 -56 23 -9 53 -68 39 -77 -13 -8 -1
-33 16 -37 20 -4 84 -152 77 -178 -6 -24 5 -25 52 -6 35 15 49 46 21 46 -8 0
-18 10 -22 23 -4 12 -20 48 -35 81 -29 59 -30 76 -4 76 36 0 136 -134 120
-160 -14 -22 7 -29 40 -13 34 16 48 43 23 43 -7 0 -25 22 -40 49 -15 26 -46
65 -68 85 -34 30 -39 40 -30 56 41 77 -42 114 -157 68z m19 -27 c3 8 8 -2 13
-21 4 -19 16 -45 27 -57 14 -15 18 -28 13 -43 -5 -17 -4 -21 6 -15 9 6 11 3 5
-10 -4 -10 0 -28 9 -41 9 -13 11 -24 5 -24 -5 0 -10 4 -10 9 0 4 -12 26 -27
47 -14 21 -27 46 -28 54 -1 8 -11 34 -22 57 -11 23 -18 45 -15 48 3 3 9 0 13
-6 5 -8 8 -7 11 2z m98 -14 c0 -13 -11 -33 -23 -45 l-24 -22 -15 39 c-9 22
-13 42 -10 45 3 3 20 6 39 6 28 0 33 -4 33 -23z"/>
<path d="M1765 860 c-3 -5 -4 -14 -1 -19 8 -13 -120 -281 -141 -296 -15 -11
-12 -15 25 -34 51 -26 52 -26 50 2 -2 31 118 278 145 299 l22 17 -28 10 c-16
6 -37 16 -47 21 -13 7 -21 7 -25 0z m35 -56 c0 -8 -5 -12 -11 -8 -8 4 -9 -1
-4 -16 4 -14 3 -20 -3 -16 -5 3 -13 -6 -17 -21 -7 -29 -93 -213 -100 -213 -2
0 -3 9 -2 19 0 11 5 17 9 15 4 -3 8 2 8 10 0 8 9 30 20 49 12 19 20 39 19 43
-2 8 45 110 64 142 11 16 17 15 17 -4z"/>
<path d="M1960 736 c-5 -13 -14 -27 -20 -31 -7 -4 -45 -52 -86 -107 -41 -55
-84 -108 -95 -117 -21 -16 -20 -17 17 -43 42 -31 49 -30 57 9 3 16 29 59 56
98 50 68 70 110 32 67 -10 -12 -21 -19 -24 -16 -3 4 -9 -6 -13 -20 -3 -15 -8
-25 -11 -22 -6 6 -41 -27 -37 -35 2 -4 -3 -12 -11 -19 -8 -7 -15 -19 -15 -26
0 -8 -8 -14 -17 -14 -15 0 -16 2 -3 10 8 5 11 10 7 10 -7 0 0 12 33 48 28 32
90 122 90 131 0 5 9 13 21 16 11 4 18 9 15 12 -9 10 15 33 27 26 6 -4 8 0 4
10 -4 11 -2 14 9 10 8 -3 12 -8 10 -11 -3 -3 -1 -11 6 -19 9 -11 7 -12 -7 -7
-11 5 -16 3 -12 -2 7 -12 -17 -87 -25 -79 -7 7 -54 -100 -68 -157 -7 -26 -18
-49 -26 -52 -23 -9 -16 -31 17 -55 24 -18 33 -20 45 -10 8 6 12 14 10 17 -3 3
23 39 58 81 34 42 77 97 94 123 30 43 31 48 15 57 -10 6 -13 11 -7 11 5 0 15
-5 21 -11 6 -6 17 -8 24 -3 9 5 3 15 -21 35 -36 30 -50 30 -50 -2 0 -26 -19
-62 -69 -128 -34 -45 -39 -57 -28 -70 10 -14 10 -14 -4 -3 -13 10 -19 9 -29
-3 -12 -14 -7 -19 13 -16 5 1 6 -3 2 -9 -3 -6 -11 -7 -17 -4 -6 4 -8 2 -5 -3
4 -6 -2 -18 -13 -28 -17 -15 -23 -16 -33 -6 -9 11 -9 14 1 18 6 3 10 9 7 13
-3 5 3 17 14 27 11 10 36 65 57 123 20 58 46 115 57 128 l21 23 -29 24 c-38
31 -53 31 -65 1z"/>
<path d="M292 703 c-25 -10 -44 -64 -38 -106 18 -108 138 -237 221 -237 67 0
94 70 56 142 -11 19 -17 38 -14 42 16 15 -30 16 -47 1 -19 -17 -19 -18 10 -45
54 -50 32 -116 -26 -81 -86 53 -178 229 -129 247 17 7 48 -14 40 -26 -12 -19
17 -20 39 -2 27 21 24 30 -21 55 -30 17 -65 21 -91 10z m14 -148 c3 -20 9 -34
11 -31 7 6 53 -49 53 -63 0 -5 9 -15 20 -21 11 -6 18 -16 14 -22 -9 -15 -52
34 -46 52 5 13 3 13 -11 1 -15 -12 -17 -12 -11 4 6 14 4 16 -7 10 -8 -4 -11
-5 -7 -1 3 4 -5 24 -18 43 -25 37 -31 63 -14 63 5 0 12 -16 16 -35z"/>
<path d="M1234 501 c-43 -26 -101 -97 -120 -148 -17 -43 -16 -44 6 -68 12 -13
44 -29 74 -36 60 -14 83 -31 91 -69 5 -24 0 -35 -33 -69 -42 -43 -60 -87 -43
-104 24 -24 101 68 101 121 0 10 13 28 30 40 35 26 40 27 40 7 0 -25 17 -17
49 22 l31 38 0 -46 c0 -25 7 -54 15 -65 14 -18 16 -18 46 15 23 24 33 30 39
21 11 -18 27 -5 53 43 l22 42 3 -73 c2 -42 7 -72 13 -70 5 2 10 75 12 176 1
111 -2 171 -8 169 -5 -2 -11 -38 -13 -80 -3 -73 -4 -77 -26 -77 -28 0 -52 -25
-62 -65 -9 -36 -43 -95 -55 -95 -14 0 -22 48 -16 100 6 46 5 48 -20 53 -38 7
-51 -1 -73 -43 -16 -31 -57 -70 -74 -70 -2 0 -7 11 -10 25 -8 31 -53 60 -118
75 -59 15 -69 39 -39 98 28 55 63 95 104 117 48 26 71 8 64 -47 -3 -21 -1 -36
4 -32 17 10 10 80 -9 97 -24 22 -40 21 -78 -2z m396 -231 c0 -16 -38 -88 -50
-95 -15 -9 -12 30 4 70 14 32 46 49 46 25z m-170 -6 c0 -14 -64 -97 -67 -87
-6 18 36 93 52 93 8 0 15 -3 15 -6z m-180 -159 c0 -17 -69 -96 -70 -79 0 12
57 94 65 94 3 0 5 -7 5 -15z"/>
<path d="M31 455 c-24 -31 -26 -41 -10 -50 6 -4 21 2 33 14 30 28 62 27 69 -1
l6 -22 26 24 c28 27 28 44 -1 48 -104 15 -100 15 -123 -13z"/>
<path d="M2220 471 c-66 -20 -134 -67 -123 -84 3 -5 2 -7 -4 -4 -11 7 -54 -35
-72 -70 -6 -12 -11 -37 -11 -56 0 -67 67 -89 148 -48 61 31 68 44 41 80 -25
35 -40 38 -59 15 -11 -13 -10 -16 8 -21 32 -8 27 -29 -9 -42 -93 -32 -108 11
-30 89 76 76 161 111 189 77 14 -16 -11 -57 -33 -57 -23 0 -28 -20 -9 -41 24
-26 28 -25 58 22 36 54 37 96 2 126 -28 24 -52 27 -96 14z m-44 -62 c-37 -25
-50 -29 -59 -20 -9 9 -8 11 7 5 13 -5 17 -4 13 3 -7 10 12 23 41 29 8 1 16 5
20 8 3 3 10 6 15 6 6 0 -11 -14 -37 -31z"/>
<path d="M896 448 c-28 -42 -44 -93 -54 -164 -11 -80 -58 -186 -73 -163 -13
22 -20 110 -12 169 8 54 9 55 43 58 19 2 39 7 43 12 5 4 -12 5 -37 3 l-47 -6
11 27 c13 35 13 39 -2 34 -7 -3 -15 -18 -18 -33 -4 -23 -12 -31 -38 -36 -41
-8 -59 -23 -42 -34 8 -5 16 -1 22 9 5 9 18 16 29 16 19 0 20 -4 13 -62 -7 -65
-39 -133 -56 -122 -6 4 -8 30 -5 65 3 33 2 59 -3 59 -13 0 -20 -29 -20 -81 0
-62 22 -76 56 -36 l22 26 11 -45 c14 -54 34 -56 68 -5 13 19 23 29 23 22 0 -6
7 -11 15 -11 8 0 15 7 15 17 0 18 46 83 60 83 5 0 10 -28 12 -62 3 -54 6 -63
22 -63 14 0 27 17 47 63 16 34 25 62 20 62 -4 0 -18 -25 -30 -55 -13 -30 -27
-55 -32 -55 -5 0 -9 24 -9 54 0 70 -19 88 -55 52 -14 -14 -25 -30 -25 -36 0
-5 -4 -10 -9 -10 -15 0 1 54 20 68 35 24 71 99 72 149 2 42 -1 48 -20 51 -14
2 -27 -5 -37 -20z m49 -36 c-9 -46 -37 -102 -65 -127 l-22 -20 7 40 c14 75 57
161 76 149 7 -4 8 -21 4 -42z"/>
<path d="M37 394 c-11 -11 -8 -26 3 -19 6 4 7 -1 3 -11 -5 -13 -3 -15 8 -9 8
5 11 4 6 0 -4 -5 3 -15 15 -22 13 -7 18 -12 11 -13 -6 0 -25 12 -42 26 -39 32
-41 17 -3 -20 37 -34 87 -43 136 -22 21 9 51 16 67 16 29 0 69 -30 69 -51 0
-24 -22 -49 -43 -49 -29 0 -51 15 -43 29 15 23 -24 23 -44 0 -28 -34 -25 -42
18 -58 63 -23 111 -19 138 13 34 39 32 86 -7 130 -39 45 -84 54 -154 32 -69
-21 -80 -20 -108 9 -13 14 -26 22 -30 19z"/>
<path d="M604 236 c-1 -45 -6 -91 -12 -102 -10 -18 -11 -17 -21 9 -6 16 -11
48 -11 73 0 52 -21 60 -40 15 -6 -16 -20 -37 -31 -47 -18 -16 -19 -16 -19 5 0
12 7 36 16 52 8 17 13 36 11 42 -7 22 -39 -43 -45 -89 -4 -41 -3 -46 14 -42
10 2 28 18 39 35 11 18 23 32 26 33 4 0 9 -21 12 -46 5 -51 30 -85 48 -67 24
24 41 194 21 207 -4 2 -8 -32 -8 -78z"/>
<path d="M1801 275 c-11 -14 -22 -38 -26 -53 -3 -15 -14 -38 -25 -52 l-18 -25
-7 28 c-4 15 -5 46 -1 67 7 42 -7 56 -18 18 -8 -30 -8 -82 0 -102 8 -20 23
-20 45 0 17 15 19 15 34 0 12 -12 21 -13 35 -6 23 13 92 92 85 99 -3 2 -13 -6
-22 -20 -24 -34 -60 -69 -72 -69 -22 0 -15 37 11 62 17 15 28 37 28 52 0 34
-22 34 -49 1z m39 -2 c-1 -21 -27 -59 -36 -51 -6 6 23 68 31 68 3 0 5 -8 5
-17z"/>
</g>
</svg>
